# xmcd
# 
# Track frame offsets:
#   150
#   11631
#   26238
#   41787
#   55888
#   67283
#   83770
#   98440
#   119344
#   134085
#   150496
#   163151
#   178111
#   192279
#   205826
#   221075
#   240295
# 
# Disc length: 3478 seconds
# 
# Revision: 0
# Processed by: cddbd v1.5.2PL0 Copyright (c) Steve Scherf et al.
# Submitted via: VOLTOCDX V1.0.24 
# 
DISCID=f30d9411
DTITLE=Various Artist - Chartbuster - The Greatest Hits of Conway Twitty
DYEAR=2008
DGENRE=Karaoke
TTITLE0=Boogie Grass Band - Conway Twitty
TTITLE1=Between Blue Eyes And Jeans - Conway Twitty
TTITLE2=Georgia Keeps Pullin' On My ring - Conway Twitty
TTITLE3=Happy Birthday Darlin' - Conway Twitty
TTITLE4=Louisiana Woman, Mississippi Man - Conway Twitty
TTITLE5=Play Guitar Play - Conway Twitty
TTITLE6=There's A honky Tonk Angel (Who'll Take Me Back In) - Conway Twitty
TTITLE7=Fallin' For You For Years - Conway Twitty
TTITLE8=You've Never Been This Far Before - Conway Twitty
TTITLE9=Touch The Hand - Conway Twitty
TTITLE10=After The Fire Is Gone - Conway Twitty
TTITLE11=The Games That Daddies Play - Conway Twitty
TTITLE12=Image Of Me - Conway Twitty
TTITLE13=I Couldn't See You Leaving - Conway Twitty
TTITLE14=Fifteen Years Ago - Conway Twitty
TTITLE15=The Clown - Conway Twitty
TTITLE16=Don't Cry Joni - Conway Twitty
EXTD=
EXTT0=
EXTT1=
EXTT2=
EXTT3=
EXTT4=
EXTT5=
EXTT6=
EXTT7=
EXTT8=
EXTT9=
EXTT10=
EXTT11=
EXTT12=
EXTT13=
EXTT14=
EXTT15=
EXTT16=
PLAYORDER=
